<?xml version="1.0" standalone="no"?>
<!DOCTYPE svg PUBLIC "-//W3C//DTD SVG 20010904//EN"
 "http://www.w3.org/TR/2001/REC-SVG-20010904/DTD/svg10.dtd">
<svg version="1.0" xmlns="http://www.w3.org/2000/svg"
 width="260.000000pt" height="260.000000pt" viewBox="0 0 260.000000 260.000000"
 preserveAspectRatio="xMidYMid meet">
<metadata>
Created by potrace 1.11, written by Peter Selinger 2001-2013
</metadata>
<g transform="translate(0.000000,260.000000) scale(0.100000,-0.100000)"
fill="#000000" stroke="none">
<path d="M1046 2574 c-158 -29 -328 -98 -470 -192 -90 -59 -251 -215 -324
-312 -110 -145 -194 -340 -227 -525 -21 -119 -21 -361 0 -480 44 -245 155
-467 325 -648 l58 -62 6 50 c35 272 100 445 238 629 150 200 347 343 579 420
148 50 268 68 444 70 202 1 332 -24 498 -98 l57 -25 0 -341 0 -342 -47 28
c-140 83 -246 116 -373 117 -167 1 -285 -47 -397 -158 -82 -82 -124 -159 -148
-271 -26 -125 -12 -257 39 -370 l25 -54 59 0 c84 0 233 27 337 61 190 63 355
170 511 331 245 254 357 537 355 908 0 165 -18 282 -61 412 -98 293 -317 552
-602 716 -101 57 -264 114 -392 137 -112 19 -380 19 -490 -1z"/>
</g>
</svg>
